<svg width="1547" height="1115" viewBox="0 0 1547 1115" fill="none" xmlns="http://www.w3.org/2000/svg">
<path d="M992.702 341.728H706.5C689.379 341.728 675.5 355.607 675.5 372.728V769.217C675.5 786.338 689.379 800.217 706.5 800.217H992.702C1009.82 800.217 1023.7 814.096 1023.7 831.217V1037.65C1023.7 1065.62 1057.81 1079.29 1077.12 1059.06L1526.42 588.578C1537.71 576.754 1537.88 558.192 1526.8 546.166L1077.5 58.4063C1058.37 37.6388 1023.7 51.1737 1023.7 79.4091V310.728C1023.7 327.849 1009.82 341.728 992.702 341.728Z" fill="#6D9AFF" stroke="black"/>
<path d="M317.302 341.728H31.5C14.3792 341.728 0.5 355.607 0.5 372.728V769.217C0.5 786.338 14.3792 800.217 31.5 800.217H317.302C334.423 800.217 348.302 814.096 348.302 831.217V1037.59C348.302 1065.56 382.427 1079.23 401.734 1058.98L850.455 588.566C861.731 576.744 861.897 558.201 850.836 546.179L402.115 58.4865C382.991 37.7017 348.302 51.2321 348.302 79.4762V310.728C348.302 327.849 334.423 341.728 317.302 341.728Z" fill="white" stroke="black"/>
<circle cx="760" cy="557.5" r="403.5" fill="#20242B"/>
<path d="M459.394 556.992C459.394 676.177 528.66 779.177 629.101 827.987L485.464 434.448C468.756 471.896 459.394 513.338 459.394 556.992Z" fill="white"/>
<path d="M963.789 541.796C963.789 504.583 950.422 478.812 938.957 458.753C923.693 433.949 909.386 412.945 909.386 388.142C909.386 360.462 930.379 334.697 959.95 334.697C961.285 334.697 962.551 334.863 963.852 334.937C910.28 285.858 838.905 255.893 760.512 255.893C655.315 255.893 562.763 309.865 508.921 391.614C515.986 391.826 522.644 391.975 528.299 391.975C559.795 391.975 608.549 388.153 608.549 388.153C624.781 387.196 626.695 411.037 610.48 412.956C610.48 412.956 594.168 414.876 576.016 415.827L685.67 741.981L751.567 544.352L704.653 415.815C688.438 414.864 673.077 412.945 673.077 412.945C656.85 411.994 658.752 387.185 674.979 388.142C674.979 388.142 724.707 391.963 754.295 391.963C785.785 391.963 834.545 388.142 834.545 388.142C850.788 387.185 852.696 411.026 836.476 412.945C836.476 412.945 820.129 414.864 802.012 415.815L910.83 739.5L940.865 639.136C953.882 597.488 963.789 567.574 963.789 541.796Z" fill="white"/>
<path d="M765.794 583.33L675.449 845.852C702.424 853.781 730.952 858.119 760.512 858.119C795.577 858.119 829.205 852.057 860.506 841.05C859.698 839.761 858.965 838.392 858.363 836.902L765.794 583.33Z" fill="white"/>
<path d="M1024.73 412.527C1026.02 422.118 1026.76 432.414 1026.76 443.489C1026.76 474.045 1021.05 508.393 1003.86 551.342L911.884 817.267C1001.4 765.065 1061.62 668.081 1061.62 556.997C1061.62 504.646 1048.25 455.418 1024.73 412.527Z" fill="white"/>
<path d="M760.511 206C566.969 206 409.5 363.453 409.5 556.991C409.5 750.552 566.969 908 760.511 908C954.048 908 1111.54 750.552 1111.54 556.991C1111.53 363.453 954.048 206 760.511 206ZM760.511 891.911C575.844 891.911 425.595 741.666 425.595 556.991C425.595 372.328 575.838 222.094 760.511 222.094C945.173 222.094 1095.41 372.328 1095.41 556.991C1095.41 741.666 945.173 891.911 760.511 891.911Z" fill="#6D9AFF"/>
</svg>